<?xml version="1.0" encoding="utf-8"?>
<!-- Generator: Adobe Illustrator 27.5.0, SVG Export Plug-In . SVG Version: 6.00 Build 0)  -->
<svg version="1.1" xmlns="http://www.w3.org/2000/svg" xmlns:xlink="http://www.w3.org/1999/xlink" x="0px" y="0px"
	 viewBox="0 0 500 500" style="enable-background:new 0 0 500 500;" xml:space="preserve">
<g id="BACKGROUND">
</g>
<g id="OBJECTS">
	<path style="fill:#002B2F;" d="M307.114,95.163c-6.69-13.803-14.996-27.877-29.333-34.843c-6.747-3.281-14.825-4.974-22.325-5.361
		c-5.2-0.271-10.218,1.228-15.041,3.194c-1.416-3.834-4.714-6.076-8.735-6.721c-7.317-1.176-15.814,0.508-23.178,1.029
		c-0.126,0.007-0.215,0.066-0.286,0.14c-0.143-0.122-0.298-0.236-0.444-0.349c-5.528-4.297-11.148-8.753-17.708-11.382
		c-12.474-5.01-26.16-2.111-38.79,0.68c-0.022,0.004-0.027,0.024-0.049,0.028c-0.147-0.071-0.329-0.048-0.423,0.144
		c-0.411,0.904-0.039,2.207,0.938,2.503c0.085,0.106,0.203,0.169,0.368,0.131c8.395-1.764,16.911-3.713,25.548-3.236
		c10.003,0.558,17.651,4.756,25.2,11c0.425,0.343,0.847,0.696,1.27,1.049c-15.145-0.087-25.77,12.573-34.316,23.684
		c-11.318,14.721-24.277,27.09-39.692,37.508c-14.308,9.662-29.751,17.513-45.338,24.86c-17.132,8.077-34.638,16.582-53.565,19.209
		c-0.163,0.028-0.24,0.121-0.259,0.23c-0.394-0.304-1.096-0.163-1.013,0.45c1.345,10.094,6.384,18.869,13.262,26.246
		c3.772,4.049,8.001,7.672,12.375,11.065c3.782,2.942,7.92,5.982,12.806,6.498c0.087,0.366,0.623,0.646,0.904,0.297
		c13.412-16.94,28.458-32.421,45.344-45.933c7.821-6.261,15.998-12.073,24.443-17.461c4.545-2.891,9.529-6.482,15.097-6.764
		c4.864-0.245,9.283,2.217,13.991,2.966c18.192,2.913,32.478-11.79,47.011-19.95c4.35-2.436,8.952-4.317,13.576-6.161
		c0.018,0.047,0.047,0.096,0.084,0.147c1.832,1.916,4.643,3.663,7.324,2.297c2.336-1.201,3.004-4.314,2.892-6.728
		c0.003-0.01-0.014-0.025-0.021-0.037c0.355-0.163,0.719-0.323,1.075-0.486c1.467-0.711,3.681-1.768,5.59-3.116
		c0.084,0.033,0.176,0.037,0.284-0.016c0.48-0.243,0.899-0.564,1.265-0.921c1.394,3.684,3.017,7.253,4.869,10.739
		c0.192,0.363,0.798,0.113,0.668-0.285c-1.358-4.047-2.576-8.19-4.21-12.135c-0.004-0.022-0.024-0.027-0.04-0.042
		c0.998-1.387,1.327-2.945,0.413-4.654c2.612-0.234,3.574-3.59,3.587-5.814c0.006-0.174-0.12-0.281-0.265-0.321
		c0.377-3.11-0.927-5.867-2.289-8.713c0.148-0.239,0.007-0.599-0.27-0.57c-0.09-0.201-0.184-0.392-0.277-0.583
		c-2.79-5.989-5.206-12.094-7.563-18.266c11.655-3.968,24.688-2.588,35.648,3.379c12.762,6.963,21.511,18.982,26.993,32.198
		c0.088,0.21,0.373,0.153,0.481-0.015c-0.024,0.128,0.021,0.265,0.173,0.317c0.385,0.146,0.813,0.096,1.167-0.098
		c0.172-0.098,0.332-0.231,0.447-0.386c0.112-0.146,0.092-0.224,0.097-0.357C307.012,95.498,307.2,95.342,307.114,95.163z
		 M224.327,52.299c6.553-0.399,11.921,0.094,15.689,6.027c-2.018,0.831-4.006,1.742-5.957,2.632c-0.579-0.768-1.243-1.414-2.05-1.84
		c-0.108-0.061-0.205-0.046-0.288-0.006c-0.391-0.085-0.814-0.055-1.195,0.09c-0.682,0.261-1.169,0.833-1.374,1.513
		c-0.041-0.001-0.071,0.033-0.065,0.086c0.004,0.063,0.01,0.117,0.013,0.18c-0.017,0.099-0.052,0.193-0.049,0.297
		c-0.008,0.143,0.051,0.231,0.12,0.281c0.011,0.034,0.023,0.069,0.025,0.1c-7.693,0.897-14.241-3.841-20.14-8.415
		C214.15,52.958,219.236,52.618,224.327,52.299z M232.583,64.837c0.327-0.212,0.564-0.438,0.721-0.747
		c0.059-0.026,0.125-0.039,0.193-0.062c0.242-0.09,0.176-0.419-0.035-0.445c0.072-0.457,0.007-0.941-0.216-1.343
		c-0.417-0.755-1.7-1.487-2.489-0.872c-0.022,0.004-0.017,0.026-0.03,0.033c-0.375,0.085-0.755,0.148-1.122,0.203
		c-0.007-0.012-0.014-0.025-0.021-0.037c0.098-0.056,0.175-0.149,0.193-0.29c0.071-0.644,0.449-1.236,1.093-1.434
		c0.386-0.124,0.782-0.057,1.151,0.074c2.625,2.048,3.809,7.54,4.87,10.428c0.881,2.405,1.77,4.822,2.651,7.226
		c1.692,4.572,3.286,9.201,5.233,13.677c-0.272-0.105-0.562-0.183-0.839-0.269c-0.004-0.022,0.001-0.041-0.013-0.066
		c-2.047-5.021-4.082-10.049-6.457-14.931c-1.886-3.858-4.388-7.469-6.379-11.283c0.497-0.114,0.997-0.237,1.505-0.39
		c-0.067,0.095-0.118,0.206-0.19,0.28C232.285,64.715,232.433,64.932,232.583,64.837z M236.656,111.097
		c-2.301,2.142-5.358,0.35-7.151-1.484c3.042-1.206,6.079-2.434,9.051-3.803C238.186,107.636,238.103,109.738,236.656,111.097z
		 M236.606,105.819c-4.16,1.814-8.429,3.382-12.615,5.137c-15.247,6.402-27.678,19.536-43.908,23.445
		c-4.702,1.139-9.513,1.264-14.219,0.05c-3.639-0.946-7.128-2.524-10.953-2.442c-6.286,0.14-11.977,4.16-17.069,7.39
		c-26.506,16.818-50.169,38.355-69.384,63.171c-0.015,0.017-0.01,0.039-0.028,0.065c-16.964-8.051-34.623-23.969-37.223-43.531
		c0.055,0.025,0.113,0.041,0.189,0.03c17.414-2.395,33.469-9.749,49.333-16.937c15.722-7.123,31.233-14.801,45.777-24.15
		c13.896-8.945,26.921-19.493,37.508-32.246c11.079-13.345,21.429-31.831,40.99-31.903c7.253,5.998,15.701,12.517,25.263,10.955
		c1.246,2.628,3.179,5.09,4.474,7.534c3.133,5.906,5.635,12.117,8.119,18.314c-0.751-0.173-1.53-0.28-2.317-0.359
		c0,0,0.003-0.01-0.004-0.022c-3.442-4.384-5.552-9.173-6.094-14.739c-0.039-0.467-0.752-0.474-0.725,0
		c0.034,0.714,0.1,1.426,0.198,2.136c-1.441-1.334-2.855-2.577-3.957-4.244c-1.157-1.733-1.782-3.592-2.342-5.577
		c-0.141-0.473-0.788-0.265-0.727,0.197c0.049,0.355,0.119,0.706,0.207,1.071c0.605,2.506,2.046,5.103,3.971,6.983
		c-0.164,0.069-0.277,0.257-0.176,0.46c2.252,4.341,3.731,8.938,4.474,13.761c-0.807,0.071-1.587,0.16-2.281,0.273
		c-2.823,0.436-5.505,1.387-7.815,2.875c-0.672-2.908-1.729-5.888-2.951-8.602c-0.985-2.174-10.906-12.951-12.998-14.14
		c-0.076-0.042-0.149-0.047-0.217-0.037c5.071-2.852,11.024-3.738,17.63-1.265c0.169,0.067,0.296-0.137,0.253-0.284
		c-0.012-0.034-0.042-0.074-0.088-0.096c-14.392-6.991-26.946,5.488-32.746,17.706c-0.082,0.071-0.12,0.175-0.139,0.284
		c-0.221,0.479-0.427,0.954-0.629,1.431c0.089,0.279,0.097,0.585,0.029,0.871c0.037,0.02,0.074,0.042,0.117,0.053
		c0.605,4.609,3.522,8.83,7.945,10.516c0.163,0.2,0.36,0.201,0.565,0.132c0.01,0.003,0.022-0.005,0.022-0.005
		c0.183-0.064,0.372-0.148,0.55-0.193c0.11,0.092,0.242,0.138,0.418,0.103c5.288-1.312,12.314-3.571,17.681-2.043
		c0.019,0.005,0.022-0.004,0.032-0.002c-0.355,0.546-0.689,1.129-0.971,1.747c-0.114,0.228,0.227,0.424,0.341,0.196
		c2.245-4.686,6.23-6.889,11.122-8.039c3.629-0.849,9.941-1.583,13.322,0.432c0.394,0.076,0.731,0.209,1.004,0.386
		c-3.666-0.808-7.849,1.322-10.216,3.974c-0.144,0.148-0.082,0.34,0.045,0.447c0.114,2.901,0.965,6.375,3.884,7.529
		C238.385,105.027,237.499,105.429,236.606,105.819z M240.039,90.297c-1.485-0.102-2.966-0.068-4.353,0.042
		c-0.368-4.793-1.718-9.366-3.985-13.618c0.682,0.579,1.417,1.078,2.188,1.443c0.036,0.02,0.077,0.021,0.111,0.009
		C234.738,82.715,236.79,87.033,240.039,90.297z M201.506,99.23c-0.011,0.009-0.026,0.013-0.037,0.023
		c-3.872-2.149-6.622-5.651-7.102-10.184c-0.01-0.075-0.034-0.144-0.071-0.195c0.158-0.392,0.333-0.77,0.501-1.159
		c5.561,1.923,10.128,5.368,13.607,10.114c-1.712,0.295-3.41,0.656-5.094,1.092c-0.191,0.249-0.473,0.43-0.846,0.484
		c-0.005,0.032-0.027,0.059-0.025,0.091c-0.044,0.009-0.075,0.01-0.109,0.022c-0.088,0.018-0.178,0.045-0.268,0.073
		c-0.017-0.015-0.033-0.03-0.062-0.038c0.021-0.045,0.031-0.095,0.034-0.145C201.832,99.382,201.656,99.321,201.506,99.23z
		 M195.16,86.953c1.455-3.088,3.266-6.075,5.392-8.73c4.113,3.082,15.968,14.157,17.98,18.788c-2.018-0.278-4.154,0.034-6.15,0.249
		c-1.133,0.128-2.254,0.29-3.381,0.471C205.64,92.624,200.873,88.999,195.16,86.953z M201.058,77.608
		c2.283-2.729,4.909-5.071,7.835-6.756c-0.133,0.152-0.157,0.4,0.068,0.526c4.656,2.62,14.38,13.796,16.185,22.215
		c-1.652,1.086-3.107,2.442-4.247,4.122c-0.014-0.025-0.028-0.049-0.055-0.067c-0.608-0.279-1.236-0.449-1.876-0.571
		C217.514,92.031,205.378,80.855,201.058,77.608z M244.128,101.964c-0.089,0.059-0.112,0.146-0.111,0.218
		c-0.429,0.246-0.873,0.468-1.287,0.697c-1.001,0.558-2.03,1.066-3.066,1.562c-2.938-1.315-3.386-4.555-3.651-7.435
		c-0.004-0.063-0.022-0.11-0.043-0.146c1.294-1.41,2.839-2.483,4.652-3.132c1.803-0.651,3.543-0.572,5.403-0.628
		c0.078,0.094,0.156,0.188,0.21,0.295c0.867,0.587,1.554,1.375,1.849,2.273c0.199,0.334,0.34,0.693,0.437,1.062
		c-0.02,0.419-0.089,0.825-0.196,1.221C247.173,99.598,245.909,100.82,244.128,101.964z M250.252,106.277
		c-0.86-1.911-1.661-3.849-2.403-5.812c-0.014-0.025-0.028-0.049-0.042-0.074c0.135-0.191,0.257-0.376,0.366-0.585
		c0.032-0.043,0.062-0.076,0.094-0.119C248.828,101.902,249.529,104.092,250.252,106.277z M251.84,88.959
		c-0.126,0.847-0.283,1.654-0.535,2.393c-1.738-3.144-2.998-6.367-3.706-9.906c-0.012-0.034-0.026-0.059-0.04-0.083
		c0.62-0.412,1.193-0.847,1.853-1.176C250.704,83.025,251.767,85.945,251.84,88.959z M246.105,73.24
		c0.884,2.053,1.987,4.134,2.993,6.272c-0.796,0.375-1.546,0.886-2.014,1.619c-0.038,0.062-0.044,0.123-0.018,0.182
		c-0.081,0.071-0.142,0.179-0.115,0.31c0.659,3.608,2.054,7.136,4.182,10.138c-0.455,1.068-1.179,1.939-2.451,2.465
		c-0.148-0.217-0.307-0.436-0.494-0.663c-0.792-0.94-1.826-1.635-2.995-2.138c-2.056-6.899-4.77-13.624-7.251-20.368
		c-0.776-2.106-1.415-5.212-2.576-7.806c1.874-1.025,3.814-1.877,5.801-2.592C242.632,64.921,244.314,69.107,246.105,73.24z"/>
	<g>
		<path style="fill:#002B2F;" d="M234.6,349.423c-0.78-1.15-2.37-1.72-3.68-1.26c-0.09-0.06-0.21-0.08-0.32-0.02
			c-3.12,1.92-0.89,7.33,2.69,5.52C234.84,352.883,235.64,350.933,234.6,349.423z M230.42,349.353c0.1,0.02,0.21,0.01,0.33-0.05
			c0.45-0.26,0.96-0.34,1.45-0.27c-0.01,0.03-0.04,0.05-0.04,0.09c-0.04,0.48-0.11,0.92-0.22,1.35c-0.25-0.08-0.51-0.16-0.76-0.23
			c-0.27-0.07-0.36,0.3-0.11,0.4c0.24,0.1,0.49,0.19,0.74,0.28c-0.13,0.37-0.28,0.74-0.5,1.11c-0.09,0.15,0.13,0.33,0.25,0.19
			c0.27-0.34,0.51-0.72,0.71-1.13c0.26,0.1,0.51,0.2,0.77,0.29c0.35,0.13,0.51-0.44,0.16-0.54c-0.24-0.08-0.48-0.14-0.72-0.22
			c0.17-0.46,0.28-0.95,0.29-1.44c0.34,0.14,0.65,0.37,0.9,0.67c0.88,1.11,0.11,2.52-1.06,2.99
			C230.36,353.743,229.57,351.003,230.42,349.353z"/>
		<path style="fill:#002B2F;" d="M483,435.903c-19.45-5.29-38.59-11.43-57.29-18.97c-17.74-7.15-38.97-15.19-51.37-30.51
			c-9.3-11.5-10.8-29.02-26.41-34.5c-8.26-2.91-17.44-2.21-26.05-2.13c-4.03,0.04-8.46-0.25-12.84-0.18
			c0.05-0.25-0.04-0.51-0.34-0.67c-21.06-10.72-43.39,8.11-65.18,1.58c-0.43-0.13-0.59,0.41-0.31,0.65c0,0.01-0.01,0.01-0.02,0.02
			c-0.03-0.07-0.08-0.13-0.14-0.18c-0.02-0.09-0.07-0.18-0.19-0.21c-1.46-0.3-2.94-0.52-4.42-0.7c-0.12-0.01-0.21,0.02-0.28,0.06
			c-10.31-20.6-23.76-42.77-47.88-47.92c-0.59-0.13-1.26,0.53-0.86,1.11c11.04,15.86,22.29,31.93,34.58,46.96
			c-19.64-0.45-38.99-2.41-58.53-4.3c-0.28-0.03-0.37,0.39-0.16,0.52c0.02,0.02,0.06,0.03,0.09,0.04
			c19.55,3.64,39.81,4.79,59.67,5.06c1.44,1.75,2.9,3.48,4.38,5.2c-0.03,0-0.04,0-0.07,0c-22.46,3.29-45.66,5.35-64.3-10.02
			c-0.02-0.02-0.04-0.03-0.06-0.05c-0.33-0.28-0.79,0.16-0.48,0.49c16.56,17.42,43.87,13.82,65.18,10.81
			c0.27-0.03,0.4-0.2,0.44-0.39c0.47,0.54,0.94,1.09,1.41,1.63c0,0,0.01,0,0.01,0.01c-0.46-0.13-0.78,0.53-0.34,0.85
			c9.1,6.64,16.4,12.28,19.49,23.65c2.36,8.73,4.01,17.43,8.81,25.25c7.52,12.24,23.46,20.63,36.87,12.12
			c0.18-0.11,0.27-0.26,0.31-0.41c6.56,1.6,13.29,2.51,20.04,2.65c9.34,0.2,18.56-1.48,27.8,0.66c9.17,2.13,18.01,6.28,26.63,10
			c33.37,14.4,65.18,32.11,95.42,52.27c0.52,0.35,1.02-0.08,1.09-0.57c15.51-11.66,15.09-31.61,16.45-49.19
			C484.2,435.883,483.5,435.673,483,435.903z M301.34,369.343c0.01,0,0.01,0,0.02,0c1.07,1.01,2.06,2.09,2.94,3.27
			c-1.07-0.03-2.14-0.08-3.2-0.18C301.35,371.463,301.36,370.383,301.34,369.343z M271.15,410.333c5.1,3.03,10.48,5.57,16.07,7.58
			C280.81,418.083,275.06,415.163,271.15,410.333z M300.91,378.603c1.13,4.22,0.86,8.19,0.12,12.43c-4.18,3.53-9.72-1.55-11.62-5.32
			c-1.67-3.3-1.87-6.93-2.68-10.46c4.62,1.47,9.39,2.48,14.2,3.02C300.9,378.373,300.88,378.473,300.91,378.603z M275.23,391.733
			c4.92-0.12,9.23,2.7,11.99,6.6c-6.47-0.52-13.14-2.2-19.02-3.09C269.57,393.193,271.93,391.813,275.23,391.733z M291.06,391.373
			c-6.35-5.54-13.89-9.55-21.26-13.77c-8.55-4.89-16.15-10.31-21.55-17.98c5.73,1.56,11.56,1.11,16.75,4.53
			c4.44,2.93,8.75,5.8,13.61,8c2.46,1.12,5,2.09,7.57,2.93c-0.09,5.31,1.4,11.41,5.28,15.17c0.11,0.1,0.22,0.21,0.33,0.31
			c2.85,2.54,7.36,3.99,10.35,0.92c0.17-0.17,0.18-0.37,0.11-0.54c0.58-1.63,0.82-3.43,0.51-5.15c0.17-2.46-0.12-4.98-0.75-7.4
			c1.85,0.18,3.71,0.29,5.57,0.32c0.34,0.92,0.65,1.86,0.88,2.82c1.82,7.52-2.03,13.53-9.22,15.81c-0.7,0.22-1.43,0.4-2.15,0.55
			c-0.01-0.14-0.04-0.29-0.15-0.42C295.15,395.223,293.17,393.213,291.06,391.373z M242.02,351.333c-0.74,0.7-1.49,1.39-2.26,2.06
			c-0.37-0.76-0.75-1.53-1.14-2.3C239.75,351.203,240.89,351.293,242.02,351.333z M191.85,304.193
			c23.99,6.39,36.09,29.49,46.74,50.04c0.02,0.04,0.05,0.06,0.07,0.09c-0.66,0.55-1.33,1.09-2.03,1.6
			c-1.36,1.01-2.84,1.89-4.22,2.88c-0.01-0.04-0.02-0.08-0.05-0.12C218.82,340.513,204.74,322.853,191.85,304.193z M479.64,464.113
			c-1.92,8.3-6.45,14.94-12.53,20.76c-29.97-20.35-61.96-37.67-95.22-52c-7.72-3.33-15.51-6.87-23.6-9.23
			c-8.12-2.38-15.91-2.1-24.26-1.71c-19.05,0.9-37.35-3.7-53.94-13.01c-0.9-1.31-1.68-2.71-2.31-4.22c-1.2-2.88-1.26-5.82-0.26-8.17
			c11.43,1.8,28.17,7.25,38.15-1.03c8.55-7.09,4.26-20.43-3.41-26.61c0.1-0.31-0.05-0.69-0.48-0.67c-0.06,0.01-0.12,0.01-0.18,0.01
			c-0.01-0.24-0.16-0.46-0.49-0.46h-0.02c-0.05,0.17-0.1,0.34-0.17,0.5c-1.08,0.05-2.16,0.05-3.26-0.05
			c-1.15-0.11-2.35-0.53-3.5-0.37c-0.06,0.01-0.07,0.09-0.03,0.13c1.34,1.31,3.97,1.54,6.1,1.44c-0.01,0.99-0.01,2.01,0.23,2.95
			c-1.92-0.22-3.82-0.61-5.61-1.35c-0.59-0.24-1.12-0.53-1.62-0.85c-0.41,0.04-0.83-0.07-1.12-0.38c-0.3-0.32-0.53-0.67-0.68-1.07
			c-0.06-0.07-0.14-0.14-0.21-0.21c0.05,0,0.1,0.01,0.15,0.02c-0.02-0.1-0.05-0.19-0.07-0.29c-0.08-0.21-0.14-0.43-0.19-0.64
			c-0.01-0.02-0.03-0.04-0.03-0.06c-0.19,0.01-0.33,0.14-0.38,0.31c-2.41-3.29-2.12-7.88,1.25-11.45c6.34-6.73,18.6-5,26.97-5.1
			c8.18-0.09,16.77-0.77,24.82,0.97c8.49,1.83,14.23,7.15,18.28,14.62c3.05,5.62,5.26,11.7,8.79,17.06
			c3.82,5.8,9.07,10.4,14.71,14.37c12.89,9.1,27.85,15.13,42.44,20.92c17.75,7.03,35.99,13.04,54.52,17.66
			C481.69,445.883,481.68,455.313,479.64,464.113z"/>
	</g>
	<path style="fill:#002B2F;" d="M443.491,379.152c1.676-0.51,3.764-1.167,4.255-3.074c0.594-2.31-1.481-4.36-1.288-6.672
		c0.018-0.229-0.161-0.374-0.349-0.399c0.163-0.288,0.316-0.577,0.423-0.909c0.492-1.526,0.113-3.201-1.229-4.12l-0.01-0.001
		c0.244-1.315-0.166-2.601-1.381-3.349c-0.095-0.068-0.195-0.076-0.276-0.062c-0.008-0.031-0.005-0.071-0.022-0.102
		c0.103-0.162,0.168-0.348,0.126-0.582c-4.586-30.045-9.103-60.335-15.623-90.031c-0.028-0.153-0.056-0.305-0.094-0.459
		c-0.015-0.061-0.042-0.104-0.059-0.145c0.001-0.01,0.001-0.01,0.011-0.009c0.056-0.076,0.081-0.144,0.097-0.213
		c0.108-0.102,0.181-0.267,0.104-0.433c-2.529-5.446-5.844-10.583-8.854-15.777c-0.319-0.537-1.218-0.457-1.263,0.241
		c-0.365,5.629-0.997,11.216-1.889,16.783c-0.074,0.054-0.132,0.15-0.112,0.272c4.814,31.106,10.911,62.093,16.414,93.093
		c0.022,0.102,0.056,0.185,0.09,0.258c-0.326,1.459-0.394,3.329,0.838,4.37c0.057,0.045,0.126,0.06,0.182,0.105
		c-0.326,1.208,0.031,2.4,0.833,3.296c-0.059,0.116-0.08,0.254-0.034,0.429c0.522,1.767,1.065,3.525,1.599,5.283
		c0.239,0.781,0.4,2.178,1.095,2.765C438.44,380.86,442.042,379.59,443.491,379.152z M442.091,360.193
		c0.04,0.254,0.168,0.415,0.319,0.527c-0.811,0.618-1.651,1.093-2.512,1.457c0.016-0.079,0.023-0.169,0.011-0.27
		c-2.802-14.927-5.605-29.845-8.224-44.807c-2.612-14.922-4.493-30.088-7.859-44.859c-0.046-0.174-0.16-0.263-0.289-0.274
		c-0.054-0.074-0.111-0.119-0.188-0.165c1.344-0.255,2.633-0.825,3.717-1.722C431.547,300.185,437.284,330.141,442.091,360.193z
		 M436.125,352.027c-0.405-2.239-0.799-4.487-1.204-6.726c0.416,2.23,0.832,4.449,1.258,6.68
		C436.158,351.99,436.137,352.008,436.125,352.027z M417.62,269.522l-0.009-0.011c0.445-2.844,0.81-5.684,1.106-8.539
		c0.057,0.045,0.114,0.079,0.193,0.095c1.15,0.301,2.403-0.071,3.048-1.003c1.676,2.911,3.403,5.806,5.334,8.537
		c-0.001,0.01-0.011,0.009-0.011,0.009c-1.484,1.127-3.171,1.786-4.898,1.93c-0.259-0.402-0.865-0.349-1.076,0.035
		C420.059,270.518,418.812,270.178,417.62,269.522z M434.075,362.609c-4.777-30.682-10-61.68-17.283-91.878
		c0.04,0.003,0.071-0.004,0.1-0.002c1.142,0.662,2.394,1.062,3.667,1.203c-0.025,0.068-0.031,0.138-0.027,0.219
		c1.404,15.358,5.034,30.722,7.727,45.892c2.651,14.945,5.312,29.882,7.983,44.819c-0.62-0.019-1.257-0.089-1.927-0.243
		C434.236,362.602,434.157,362.595,434.075,362.609z M433.767,363.718c0.038,0.023,0.076,0.056,0.125,0.07
		c0.848,0.308,1.77,0.451,2.693,0.454c0.374,0.471,1.164,0.373,1.474-0.114c2.092-0.326,4.089-1.352,5.315-3.031
		c0.026,0.052,0.052,0.104,0.109,0.149c1.355,1.13,0.952,3.185-0.176,4.259c-1.031,0.982-2.584,1.22-3.931,1.384
		c-0.972,0.114-2.02,0.302-2.99,0.265C433.424,367.041,433.57,365.568,433.767,363.718z M434.652,368.382
		c1.841,0.436,4.468-0.178,5.917-0.485c1.887-0.402,3.823-1.283,4.537-3.212c0,0,0.001-0.01,0.002-0.02
		C448.85,370.618,434.741,374.619,434.652,368.382z M437.658,377.558c-0.449-0.668-0.582-1.902-0.804-2.642
		c-0.254-0.843-0.509-1.685-0.764-2.518c1.857,0.739,4.082,0.263,5.889-0.387c1.332-0.477,2.684-1.212,3.612-2.292
		c-0.195,0.938-0.039,1.762,0.245,2.738c0.197,0.678,0.594,1.371,0.628,2.086c0.115,2.096-1.305,2.676-2.838,3.166
		C441.877,378.252,438.889,379.37,437.658,377.558z"/>
	<g>
		<path style="fill:#002B2F;" d="M155.287,426.128c-0.025-0.014-0.032-0.043-0.05-0.07c-1.674-3.62-3.444-7.173-5.659-10.493
			c-1.242-1.852-2.579-3.636-4.02-5.342c-0.747-0.856-1.504-1.709-2.294-2.533c-0.848-0.653-1.471-1.469-1.875-2.438
			c-0.085,0.147-0.231,0.259-0.445,0.233c-0.053-0.006-0.095-0.006-0.139-0.015c-0.252-0.015-0.483-0.181-0.546-0.413
			c-0.013-0.048-0.016-0.099-0.019-0.15l0.011-0.189c0.006-0.364,0.363-0.656,0.723-0.546c2.959,0.843,5.809,5.607,7.58,8.042
			c3.057,4.181,5.469,8.742,7.126,13.651C155.764,426.093,155.427,426.266,155.287,426.128z"/>
		<path style="fill:#002B2F;" d="M106.434,428.183c-0.066-0.169-0.226-0.302-0.461-0.29c-4.068,0.117-5.291,4.71-4.439,8.043
			c0.764,3.005,2.712,7.918,6.284,8.306c0.103,0.231,0.337,0.407,0.68,0.335C115.573,443.127,111.467,428.771,106.434,428.183z
			 M110.326,434.905c0.945,3.526,0.597,7.522-2.144,8.495c-2.385-0.748-3.522-3.446-4.446-5.579
			c-1.376-3.203-1.798-7.252,2.009-8.728C107.756,429.216,109.516,431.882,110.326,434.905z"/>
		<path style="fill:#002B2F;" d="M281.798,449.227c-0.477-0.814-1.296-1.32-2.181-1.569c-0.012-0.007-0.019,0.005-0.022-0.004
			c-0.125-0.081-0.271-0.124-0.45-0.097c-5.601,0.89-10.296,3.65-15.112,6.503c-6.352,3.763-12.806,6.724-20.269,7.347
			c-12.019,1.005-22.751-5.353-34.623-5.536c-11.748-0.185-20.151,5.162-29.915,10.874c-5.674,3.322-13.205,6.085-19.347,2.172
			c-6.954-4.431-6.135-13.43-4.647-20.392c7.966-2.145,15.927-4.351,23.841-6.689c0.406,2.096,2.451,3.66,4.639,3.633
			c1.179-0.005,2.273-0.443,3.192-1.146c0.174,0.264,0.504,0.414,0.796,0.19c7.427-5.666,4.955-20.067,3.293-27.852
			c-2.188-10.212-7.071-23.335-16.793-28.629c-0.169-0.089-0.318-0.028-0.401,0.087c-0.072-0.074-0.167-0.121-0.281-0.121
			c-1.711-0.049-3.551,0.579-5.015,1.644c-0.464,0.083-0.953,0.193-1.447,0.357c-0.456,0.153-0.555,0.594-0.433,0.934
			c-1.071,0.908-1.464,2.805-1.298,4.313c-18.268,4.461-36.814,9.234-54.412,15.772c-0.169,0.066-0.274,0.177-0.342,0.309
			c-0.654-0.974-1.354-1.925-2.102-2.822c-4.055-4.856-7.956-3.458-12.038,0.741c-0.145,0.153-0.184,0.319-0.162,0.478
			c-5.439,4.698-5.407,14.09-4.481,20.52c0.956,6.659,9.866,42.339,22.203,34.022c3.827-1.057,5.913-3.821,6.896-7.376
			c10.282-1.306,20.533-4.664,30.542-7.336c-4.54,9.095-0.488,20.277,9.173,24.107c12.232,4.849,21.784-5.828,31.925-10.637
			c15.762-7.475,31.825,3.284,47.913,3.166c6.75-0.039,13.469-1.663,19.516-4.671c7.233-3.605,13.341-8.938,21.144-11.422
			c0.116-0.031,0.19-0.103,0.245-0.169C281.689,449.94,282.025,449.612,281.798,449.227z M145.561,449.367
			c-0.005-0.019,0.002-0.032-0.003-0.051c-1.057-2.978-2.814-5.789-4.962-8.122c-0.057-0.057-0.13-0.059-0.197-0.04
			c0.344-1.19,0.644-2.388,0.917-3.61c2.738,3.532,5.216,7.102,7.298,11.047C147.597,448.853,146.578,449.105,145.561,449.367z
			 M139.512,443.948c0.273-0.798,0.533-1.603,0.782-2.414c1.862,2.545,3.288,5.123,4.567,8.001
			c-0.997,0.257-1.988,0.502-2.988,0.749c-0.703-2.12-1.423-4.267-2.331-6.301C139.536,443.962,139.514,443.958,139.512,443.948z
			 M136.019,451.738c1.321-2.332,2.422-4.832,3.351-7.431c0.493,2.073,1.166,4.119,1.852,6.14
			C139.483,450.872,137.756,451.303,136.019,451.738z M107.316,414.592c0.071,0.302,0.265,0.447,0.496,0.499
			c3.198,7.104,6.279,14.044,7.979,21.777c1.594,7.224,5.105,21.212-2.391,26.347c-0.036,0.02-0.057,0.057-0.091,0.086
			c-10.177,4.518-17.023-20.564-18.704-27.03c-1.311-5.084-2.13-10.341-1.461-15.572c0.352-2.745,0.975-5.748,2.605-8.049
			C98.995,408.074,105.916,408.983,107.316,414.592z M112.349,412.125c4.534,8.072,6.775,16.395,7.553,25.173
			c-0.507-2.318-1.025-4.405-1.407-6.021c-1.535-6.463-3.732-13.349-7.369-19.114c0.029-0.008,0.063,0.004,0.092-0.004
			c0.357-0.096,0.705-0.189,1.063-0.285C112.283,411.956,112.294,412.036,112.349,412.125z M118.792,410.129
			c3.482,12.723,5.677,24.971,2.753,37.972c-0.11-1.762-0.319-3.548-0.591-5.297c0.725-10.816-2.401-21.822-7.725-31.183
			C115.088,411.142,116.94,410.636,118.792,410.129z M127.428,407.742c2.929,16.07,5.199,32.305-2.91,47.244
			c-0.798,0.266-1.6,0.522-2.395,0.797c3.393-6.769,5.508-13.983,5.705-21.593c0.223-8.363-1.823-16.925-3.578-25.058
			c-0.068-0.292-0.363-0.389-0.605-0.324c-0.193,0.052-0.358,0.21-0.344,0.455c0.375,7.581,3.146,14.831,3.353,22.478
			c0.236,8.375-1.584,16.689-5.192,24.24c-0.007,0.012-0.005,0.022-0.012,0.034c-0.12,0.053-0.256,0.089-0.388,0.135
			c0.436-1.887,0.588-3.988,0.559-6.144c0.062-0.038,0.12-0.094,0.147-0.184c4.318-12.825,2.031-27.307-2.116-39.923
			c1.33-0.367,2.663-0.724,3.994-1.091C124.905,408.45,126.168,408.101,127.428,407.742z M132.104,406.417
			c0.658,8.251,2.803,16.217,2.561,24.585c-0.244,8.244-2.299,15.876-6.545,22.863c-0.912,0.265-1.822,0.54-2.729,0.825
			c8.382-14.193,6.851-31.766,3.145-47.255C129.719,407.097,130.912,406.757,132.104,406.417z M135.076,405.569
			c3.014,15.881,3.349,32.159-3.16,47.238c-0.915,0.255-1.848,0.485-2.76,0.75c9.552-14,6.424-31.621,3.957-47.431
			C133.768,405.94,134.422,405.754,135.076,405.569z M142.98,403.306c7.513,7.791,15.939,16.134,17.343,27.322
			c-1.596-1.591-3.297-3.071-5.098-4.421c-2.076-1.566-4.285-2.972-6.613-4.202c-1.224-3.679-3.661-7.094-6.661-9.52
			c-0.426-2.557-0.999-5.043-1.738-7.413c-0.023-0.087-0.054-0.161-0.077-0.248c-0.093-0.307-0.366-0.399-0.598-0.337
			c-0.232,0.062-0.422,0.279-0.359,0.593c3.133,15.362,3.723,32.628-3.962,46.873c-0.862,0.221-1.737,0.434-2.596,0.665
			c7.235-14.725,6.676-31.606,3.59-47.374c1.096-0.314,2.182-0.626,3.278-0.941C140.653,403.971,141.816,403.638,142.98,403.306z
			 M142.178,413.873c2.336,2.304,4.095,4.772,5.583,7.697c-1.627-0.817-3.303-1.548-5.039-2.19
			C142.618,417.524,142.434,415.678,142.178,413.873z M148.265,402.013c9.76,8.566,15.035,19.751,15.663,32.679
			c-0.946-1.175-1.926-2.32-2.973-3.406c0.05-0.044,0.073-0.113,0.069-0.205c-0.497-11.514-9.084-20.3-16.72-28.162
			c1.27-0.361,2.549-0.725,3.819-1.086C148.161,401.896,148.199,401.958,148.265,402.013z M153.872,400.221
			c8.437,11.508,12.294,23.623,12.608,37.929c-0.684-1.007-1.401-1.985-2.145-2.945c0.094-0.036,0.171-0.097,0.185-0.236
			c0.619-12.755-5.196-25.453-15.097-33.504C150.905,401.047,152.39,400.639,153.872,400.221z M163.098,397.676
			c-0.404,1.93-0.781,3.884-1.066,5.835c-0.792-1.641-1.6-3.267-2.435-4.876C160.763,398.312,161.932,397.999,163.098,397.676z
			 M166.43,396.783c-0.035,0.061-0.068,0.132-0.074,0.227c-0.135,4.208-0.569,8.114-1.775,12.154
			c-0.72-1.681-1.459-3.357-2.243-5.01c0.641-2.128,1.14-4.322,1.613-6.499c0.02-0.078,0.012-0.148-0.003-0.206
			C164.779,397.226,165.6,397.006,166.43,396.783z M167.196,397.013c-0.008-0.184-0.112-0.301-0.241-0.36
			c1.014-0.272,2.026-0.553,3.052-0.818c0.087-0.023,0.149-0.061,0.221-0.101c0.693,0.498,1.33,1.021,1.952,1.568
			c-0.088,0.096-0.139,0.214-0.139,0.369c0.134,6.373-2.383,11.737-5.196,17.274c-0.649-1.804-1.349-3.604-2.094-5.381
			c0.08-0.011,0.167-0.034,0.202-0.137C166.54,405.574,167.468,401.195,167.196,397.013z M176.359,402.229
			c1.143,1.754,2.091,3.632,2.898,5.6c-0.286,0.325-0.354,0.727-0.501,1.221c-0.411,1.363-0.862,2.695-1.4,4.009
			c-1.058,2.541-2.433,4.866-3.942,7.154c-1.451-0.584-2.932-1.088-4.416-1.488C173.256,414.293,176.07,408.414,176.359,402.229z
			 M175.331,401.872c-0.655,6.325-2.822,11.917-7.081,16.651c-0.078-0.02-0.158-0.051-0.236-0.071
			c-0.28-0.929-0.589-1.85-0.908-2.769c0.007-0.012,0.017-0.015,0.033-0.03c3.166-5.414,6.046-11.01,6.043-17.397
			c0.967,0.983,1.829,2.036,2.609,3.131C175.564,401.427,175.358,401.586,175.331,401.872z M179.734,409.068
			c0.605,1.639,1.128,3.321,1.589,5.041c0.08,0.299,0.153,0.611,0.236,0.92c-0.089,0.055-0.18,0.141-0.216,0.276
			c-0.838,2.513-1.823,4.94-3.038,7.285c-1.367-0.773-2.771-1.494-4.227-2.097c1.286-1.691,2.393-3.509,3.334-5.407
			C177.638,414.651,179.185,411.037,179.734,409.068z M181.979,416.594c0.801,3.067,1.657,6.492,2.12,9.919
			c-1.597-1.322-3.334-2.512-5.149-3.569C180.147,420.925,181.171,418.797,181.979,416.594z M184.199,427.314
			c0.216,1.888,0.316,3.767,0.196,5.559c-3.762-4.458-9.387-7.754-15.003-9.241c-0.315-1.407-0.69-2.807-1.094-4.2
			c0.098-0.099,0.196-0.198,0.293-0.296c3.259,1.228,6.299,2.681,9.214,4.405c-0.061,0.12-0.122,0.24-0.183,0.36
			c-0.212,0.367,0.334,0.666,0.551,0.318c0.073-0.113,0.137-0.223,0.21-0.336c1.777,1.066,3.509,2.238,5.219,3.519
			C183.81,427.563,184.047,427.479,184.199,427.314z M184.289,434.102c-0.189,1.458-0.517,2.861-1.051,4.154
			c-3.582-4.403-8.134-7.945-13.12-10.636c-0.16-1.137-0.371-2.271-0.61-3.398c5.68,2.267,10.156,5.447,14.573,9.761
			C184.14,434.049,184.214,434.091,184.289,434.102z M179.938,441.584c1.361-0.406,2.715-0.8,4.074-1.216
			c0.135-0.036,0.231-0.103,0.315-0.178c0.097,0.015,0.211-0.025,0.24-0.147c0.165-0.697,0.321-1.391,0.472-2.104
			c2.791-6.97-0.484-17.646-2.237-24.227c-2.01-7.537-5.249-15.261-12.368-19.224c-0.025-0.014-0.034-0.012-0.056-0.016
			c-0.183-0.22-0.457-0.354-0.805-0.26c-0.983,0.232-1.974,0.477-2.954,0.719c-0.052-0.618-0.103-1.235,0.071-1.862
			c0.257-0.897,1.066-1.777,2.053-1.803c0.124-0.002,0.222-0.06,0.284-0.138c9.449-0.399,14.489,16.398,16.486,23.545
			c2.352,8.428,2.636,16.79,2.699,25.408c-0.646,1.954-1.858,3.769-4.054,4.109C182.257,444.482,180.568,443.278,179.938,441.584z
			 M171.134,432.648c-0.194-0.145-0.435-0.039-0.505,0.125c-0.064-1.474-0.2-2.949-0.395-4.408
			c4.685,2.917,8.667,6.498,12.315,10.645c-1.289,0.366-2.578,0.732-3.867,1.099C176.415,437.403,173.901,434.857,171.134,432.648z
			 M175.117,441.136c-0.942-1.663-2.613-3.027-4.166-4.07c-0.115-0.083-0.224-0.064-0.301-0.002c0.06-1.362,0.046-2.725-0.015-4.075
			c0.02,0.036,0.037,0.063,0.067,0.096c2.458,2.333,4.788,4.732,6.961,7.317C176.819,440.649,175.962,440.889,175.117,441.136z
			 M170.06,442.585c0.292-1.693,0.455-3.363,0.556-5.035c0.015,0.017,0.02,0.036,0.032,0.043c1.474,1.096,2.491,2.418,3.632,3.779
			C172.877,441.778,171.472,442.175,170.06,442.585z M169.174,442.832c0.029-0.122,0.025-0.255-0.053-0.39
			c-0.716-1.32-1.492-2.592-2.32-3.83c0.097-0.026,0.183-0.09,0.2-0.219c1.558-13.462-3.157-28.121-11.827-38.532
			c1.057-0.304,2.12-0.589,3.18-0.883c6.958,13.758,12.846,28.041,11.13,43.771C169.386,442.775,169.28,442.804,169.174,442.832z
			 M163.675,444.409c0.095-0.149,0.118-0.332,0.003-0.529c-5.091-8.491-12.163-15.603-20.834-20.413
			c0.006-1.099-0.025-2.178-0.077-3.261c1.962,0.83,3.863,1.781,5.695,2.822c0.003,0.01,0.003,0.01,0.005,0.019
			c0.045,0.092,0.123,0.112,0.203,0.101c8.157,4.709,14.839,11.449,19.404,19.906c0.017,0.026,0.044,0.05,0.072,0.074
			C166.654,443.549,165.167,443.989,163.675,444.409z M159.392,445.619c0.114-0.155,0.152-0.362,0.032-0.578
			c-3.957-7.077-9.664-12.96-16.732-16.967c0.094-1.309,0.135-2.624,0.154-3.944c8.166,5.359,14.799,11.916,19.901,20.29
			c0.057,0.099,0.124,0.153,0.197,0.196C161.758,444.944,160.577,445.291,159.392,445.619z M154.427,446.795
			c-2.594-5.506-6.817-10.41-11.79-13.902c-0.115-0.083-0.252,0.026-0.274,0.136c-0.006,0.054,0.009,0.112,0.051,0.152
			c4.711,4.059,8.215,8.596,11.078,14.103c-0.454,0.122-0.896,0.25-1.35,0.372c-0.889,0.238-1.777,0.476-2.669,0.705
			c-2.14-4.044-4.728-7.906-7.92-11.202c-0.044-0.05-0.088-0.059-0.142-0.065c0.3-1.354,0.543-2.724,0.743-4.102
			c0.209-1.381,0.363-2.779,0.478-4.166c6.628,4.374,11.897,9.857,15.844,16.781c0.06,0.108,0.139,0.17,0.231,0.207
			c-1.415,0.4-2.817,0.807-4.225,1.194C154.475,446.937,154.467,446.867,154.427,446.795z M280.553,449.178
			c-5.571,1.658-10.307,4.729-15.231,7.757c-6.569,4.038-13.506,7.046-21.259,7.747c-12.817,1.157-24.512-4.892-37.118-5.613
			c-12.092-0.694-19.363,6.131-29.43,11.407c-6.444,3.383-13.696,4.447-19.99,0.005c-6.96-4.916-8.254-13.762-4.984-21.223
			c0.637-0.171,1.272-0.351,1.91-0.522c-2.844,9.013-1.141,21.395,10.036,23.079c12.354,1.866,22.064-10.075,33.228-13.191
			c7.765-2.163,15.473-1.6,23.189,0.422c6.693,1.758,13.179,3.902,20.18,3.796c6.092-0.1,12.056-1.564,17.52-4.24
			c7.02-3.434,13.037-8.256,20.862-9.846c0.196-0.042,0.315-0.136,0.384-0.269C280.12,448.683,280.34,448.924,280.553,449.178z"/>
	</g>
	<path style="fill:#002B2F;" d="M72.129,247.897c-4.2-2.8-10.54-3.83-12.85,1.86c-1.38,3.38-0.4,6.59,1.66,9.12
		c-0.05,0.02-0.1,0.04-0.15,0.09c-9.52,11.13-17.76,23.33-25.18,35.94c-0.34,0.59,0.47,1.23,0.95,0.74l30.74-31.76
		c3.55,1.69,8.05,0.77,10.16-2.96C80.529,255.497,76.529,250.817,72.129,247.897z M39.369,291.007
		c6.72-10.96,14.16-21.39,21.93-31.65c0.01-0.01,0.01-0.02,0.02-0.03c1.07,1.21,2.39,2.24,3.81,3.03c0.03,0.06,0.06,0.12,0.12,0.17
		c0.3,0.28,0.63,0.52,0.96,0.74C57.259,272.517,48.319,281.757,39.369,291.007z"/>
	<path style="fill:#002B2F;" d="M93.017,57.043c-2.45-4-8.04-1.73-11.74-0.93c-7.75,1.67-15.51,3.39-22.98,6.07
		c0-0.27-0.01-0.55-0.04-0.82c-0.01-0.14-0.09-0.22-0.18-0.27c0.07-0.12-0.01-0.29-0.19-0.26c-3.55,0.5-8.67,1.69-11.17,4.57
		c-1.82,2.09-2.3,6.06-1.76,8.69c1.56,7.58,13.19,3.9,17.7,2.23c0.07-0.03,0.13-0.06,0.19-0.1c0.16-0.12,0.25-0.29,0.29-0.47
		c0.32-0.2,0.43-0.74,0.02-1.04c-1.59-1.15-2.97-2.11-3.64-4.03c-0.13-0.39-0.63-0.4-0.8-0.08c-0.2-0.06-0.43-0.04-0.64,0.12
		c-0.89,0.69-2.02,1.17-3.16,1.2c-1.03,0.02-2.37-0.5-1.57-1.75c0.99-1.54,3.23-0.83,4.42-1.98c0.3,0.32,0.98,0.24,0.91-0.3
		c-0.1-0.92-0.28-1.81-0.37-2.72c4.91-1.32,9.76-2.86,14.66-4.19c4.78-1.3,9.66-2.92,14.61-2.77c-0.05,0.05-0.11,0.09-0.15,0.15
		c-0.84,0.37-1.09,1.61-0.72,2.43c0.49,1.1,1.8,1.54,3,1.58c-8.54,5.6-16.96,10.95-26.05,15.48c-1.64,0.82-3.31,1.62-5,2.38
		c-0.26,0.12-0.2,0.4-0.03,0.53c-0.01,0-0.02,0.01-0.03,0.01c-0.28,0.03-0.29,0.45,0,0.45c7.41-0.19,15.04-4.88,21.26-8.5
		c4.91-2.85,12.38-6.29,13.97-12.3c0.04-0.15,0-0.27-0.08-0.36c0.04-0.11,0.09-0.22,0.12-0.33
		C94.097,58.783,93.807,57.613,93.017,57.043z M77.917,73.033c-5.71,3.24-12.01,6.77-18.6,7.64c11.07-4.75,22.19-10.67,31.52-18.37
		c0.59-0.11,1.17-0.35,1.66-0.68C90.097,66.833,82.557,70.393,77.917,73.033z M91.057,60.913c-0.72,0.24-1.56,0.27-2.29,0.04
		c-0.83-0.26-1.45-0.94-1.16-1.63c0.19-0.32,0.45-0.57,0.78-0.74c-0.12,0.18-0.2,0.38-0.23,0.6c-0.11,0.87,0.5,1.55,1.35,1.65
		c0.82,0.09,1.81-0.37,2.12-1.16c0.25-0.64,0.03-1.62-0.75-1.66c-0.03-0.07-0.1-0.13-0.2-0.17c-4.69-1.81-9.83,0.03-14.48,1.23
		c-6.04,1.57-12.11,3.26-17.93,5.54c-0.02-0.55,0-1.1,0.02-1.64c4.9-1.39,9.81-2.72,14.78-3.87c3.65-0.85,16.52-5.3,19.11-1.25
		c0.1,0.16,0.24,0.24,0.38,0.26C92.907,59.253,92.397,60.463,91.057,60.913z M89.537,58.413c0.02-0.01,0.03-0.02,0.04-0.03
		c0.25,0.03,0.51,0.06,0.76,0.11c0.01,0.22,0.15,0.42,0.42,0.4c0.26-0.02,0.01,0.57-0.08,0.68c-0.28,0.31-0.77,0.49-1.18,0.41
		C88.697,59.803,88.757,58.563,89.537,58.413z"/>
	<path style="fill:#002B2F;" d="M170.373,310.732c-5.8,5.73-13.67,0.98-20.38,0.24c-3.77-0.42-7.57,0.38-10.68,2.61
		c-4.14,2.98-5.9,8.14-4.7,12.64c-21.23,5.06-42.07,13.71-61.69,23.15c-20.43,9.83-39.91,21.51-58.31,34.75
		c-0.65,0.47-0.28,1.52,0.56,1.32c31.23-7.43,61.41-18.59,89.89-33.21c0.31,0.09,0.57-0.08,0.66-0.34
		c11.22-5.79,22.18-12.1,32.83-18.95c0.05,0.06,0.1,0.12,0.19,0.16c7.08,3.76,15.69,4.76,22.8,0.44c8.58-5.23,7.6-13.56,9.98-22.14
		C171.713,310.743,170.863,310.252,170.373,310.732z M18.563,383.112c16.99-11.93,34.88-22.54,53.55-31.63
		c9-4.39,18.13-8.24,27.36-11.8c-1.08,4.16,0.86,8.99,4.21,11.64C76.663,365.143,48.093,375.832,18.563,383.112z M169.703,313.153
		c-0.15,0.02-0.29,0.12-0.37,0.32c-1.47,3.85-3.56,6.92-7.6,8.42c-0.37,0.14-0.22,0.71,0.16,0.59c2.77-0.85,5.56-2.85,7.12-5.46
		c-0.81,5.06-1.58,9.93-6,13.69c-6.82,5.79-16.05,5-23.55,1.15c-0.1-0.05-0.2-0.08-0.3-0.08c0.08-0.17,0.07-0.36-0.08-0.51
		c-4.55-4.41-4.84-11.46,0.07-15.81c4.77-4.23,10.65-3.36,16.3-1.89c3.91,1.01,8.03,1.85,11.69,0.69c-2.02,2.52-5.09,3.79-8.37,3.57
		c-0.38-0.03-0.36,0.53,0,0.58c3.9,0.52,7.67-1.38,9.75-4.68c0.01-0.01,0.01-0.02,0.01-0.04c0.41-0.19,0.8-0.41,1.19-0.67
		C169.713,313.073,169.703,313.112,169.703,313.153z"/>
	<g>
		<path style="fill:#002B2F;" d="M454.549,149.997c-0.593-1.151-1.51-2.331-2.565-3.351c0.754-0.88,1.528-1.723,2.396-2.53
			c0.254-0.241-0.113-0.602-0.38-0.386c-0.9,0.735-1.785,1.527-2.62,2.364c-0.847-0.724-1.758-1.33-2.674-1.731
			c-0.314-0.139-0.722,0.245-0.414,0.518c0.772,0.693,1.595,1.316,2.356,2.016c-0.552,0.604-1.088,1.223-1.552,1.883
			c-0.367,0.5,0.441,0.953,0.8,0.482c0.458-0.599,0.919-1.177,1.379-1.744c0.916,0.961,1.626,2.062,2.421,3.124
			C454.074,151.142,454.809,150.516,454.549,149.997z"/>
		<path style="fill:#002B2F;" d="M455.879,153.274c0.496-0.329,0.919-0.73,1.283-1.179c0.304-0.31,0.578-0.659,0.812-1.051
			c0.097-0.16,0.096-0.306,0.06-0.44c0.855-2.139,0.554-4.787-0.858-6.613c-0.569-1.238-1.42-2.357-2.573-3.249
			c-3.426-2.646-7.797-1.227-9.471,2.698c-1.483,3.5-0.324,7.986,3.155,9.806c2.149,1.117,4.991,1.162,7.187,0.06
			C455.595,153.361,455.728,153.367,455.879,153.274z M449.582,152.029c-2.753-1.109-3.966-4.208-3.259-7.011
			c0.926-3.697,4.846-5.325,7.816-2.609c2.184,1.999,3.025,5.13,2.625,8.018c-0.021,0.036-0.041,0.072-0.054,0.12
			C454.656,152.186,452.189,153.067,449.582,152.029z"/>
		<path style="fill:#002B2F;" d="M466.347,223.04c5.892-18.923,7.77-38.901,5.298-58.576c-1.086-8.628-2.306-19.452-6.442-27.226
			c-0.399-0.765-0.901-1.351-1.472-1.832c0.349-0.1,0.666-0.417,0.608-0.879c-0.928-6.954-1.859-14.76-4.717-21.234
			c1.087-0.735,2.188-1.446,3.306-2.142c0.264-0.165,0.324-0.418,0.25-0.636c0.103-0.221,0.11-0.468-0.075-0.737
			c-2.428-3.656-5.165-7.584-5.555-12.073c-0.476-5.634,2.813-9.691,6.68-13.327c5.298-4.971,10.345-9.265,13.311-16.078
			c5.32-12.21,3.841-27.176-3.21-38.388c-6.578-10.448-19.297-15.432-30.739-9.535c-8.799,4.536-11.823,13.306-12.224,22.464
			c-1.411-9.507-10.347-16.895-20.199-16.929c-13.379-0.041-23.864,11.105-26.313,23.627c-2.423,12.353,1.142,28.999,12.499,36.117
			c7.584,4.748,17.598,3.53,24.668,9.267c6.961,5.644,8.392,15.416,9.448,23.776c0.11,0.871,1.206,1.073,1.622,0.587
			c0.294-0.012,0.582-0.004,0.874-0.006c-0.039,0.103-0.052,0.224-0.039,0.363c4.058,35.863,8.736,73.715,30.778,103.594
			C465.149,223.838,466.095,223.831,466.347,223.04z M413.456,79.718c-0.483,0.021-0.665,0.448-0.552,0.791
			c-8.607-1.67-15.846-7.101-18.374-15.84c-2.305-7.939-0.07-17.978,7.422-22.441C424.489,28.801,433.055,78.968,413.456,79.718z
			 M414.619,81.692c-0.052,0.297-0.222,0.561-0.497,0.656C414.396,82.253,414.567,81.989,414.619,81.692
			c0.433-0.103,0.859-0.241,1.27-0.414C415.477,81.451,415.052,81.59,414.619,81.692z M455.533,31.685
			c20.089,2.636,17.208,41.425-2.476,41.881c-0.076,0.01-0.141,0.023-0.2,0.048c-10.831-1.179-13.87-12.779-13.215-22.064
			C440.282,42.542,444.206,30.202,455.533,31.685z M406.136,38.794c2.386-0.45,4.563-0.349,6.528,0.191
			C410.698,38.445,408.521,38.345,406.136,38.794c-1.313,0.247-2.54,0.644-3.68,1.17C403.595,39.439,404.823,39.041,406.136,38.794z
			 M392.158,62.151c-0.096-0.609-0.167-1.226-0.212-1.848C391.991,60.924,392.062,61.541,392.158,62.151
			c0.323,2.05,0.901,4.004,1.7,5.834C393.059,66.155,392.48,64.2,392.158,62.151z M459.08,113.672
			c0.792,7.072,2.84,14.067,3.816,21.149c-1.727-1.031-3.876-1.328-5.98-1.935c-2.143-0.617-4.272-1.47-6.215-2.582
			c2.253-3.358,2.986-7.743,1.826-11.626C454.622,116.894,456.818,115.232,459.08,113.672z M444.425,120.895
			c1.766,0.481,3.633,0.783,5.102-0.354c0.281,0.182,0.664,0.226,0.975-0.071c0.375-0.342,0.755-0.662,1.128-0.994
			c0.438,3.61-0.207,6.856-2.115,10.093c-3.187-2.123-5.649-5.061-6.374-9.021C443.565,120.666,443.991,120.774,444.425,120.895z
			 M435.709,119.651c-0.006-0.126-0.05-0.232-0.105-0.33c2.168,0.116,4.224,0.45,6.339,0.945
			c0.504,6.389,5.251,10.815,11.132,13.179c2.249,0.907,5.393,1.024,7.437,2.185c3.334,1.894,4.31,5.622,5.266,8.972
			c1.422,4.995,2.554,10.064,3.391,15.186c3.33,20.36,1.852,41.249-4.021,60.997C444.251,191.413,439.67,154.595,435.709,119.651z"
			/>
	</g>
	<path style="fill:#002B2F;" d="M352.805,144.357c-0.118-0.772-0.357-1.544-0.652-2.312c2.248,0.613,4.272-0.814,4.883-3.104
		c0.322-1.224,0.18-2.498-0.23-3.769c0.041-0.031,0.081-0.062,0.122-0.093c5.999-4.185,11.344-10.272,16.374-15.609
		c0.257,0.147,0.614,0.076,0.669-0.303c0.026-0.15,0.017-0.306,0.022-0.448c0.23-0.305,0.153-0.626-0.072-0.825
		c-0.315-1.561-1.556-2.965-3.038-3.463c-0.297-0.102-0.501,0.144-0.445,0.367c-0.022-0.02-0.052-0.032-0.081-0.045
		c-0.08-0.031-0.18-0.053-0.286-0.039c-7.972,0.891-15.967,1.642-23.912,2.73c-0.043,0.003-0.084,0.019-0.125,0.036
		c-0.688-0.595-1.44-1.074-2.256-1.328c-2.433-0.751-4.95,0.374-6.033,2.487c-0.353-0.552-0.712-1.111-1.072-1.656
		c-0.133-0.212-0.329-0.278-0.511-0.252c-2.533-4.471-9.374-1.644-13.286-0.045c-9.848,4.038-19.636,8.249-29.353,12.591
		c-8.909,3.988-17.769,8.086-26.556,12.328c-6.227,3.009-10.107,6.533-7.415,13.708c3.114,8.297,8.963,16.128,13.534,23.684
		c3.255,5.391,6.504,11.256,13.667,8.941c3.731-1.199,7.225-3.488,10.656-5.313c4.789-2.546,9.569-5.126,14.326-7.741
		c9.225-5.07,18.394-10.256,27.483-15.594C344.386,156.256,353.94,151.917,352.805,144.357z M352.163,140.705
		c-0.229-0.043-0.403,0.018-0.538,0.125c-0.439-0.922-0.976-1.825-1.54-2.711c1.515-0.822,3.044-1.419,4.778-1.808
		c0.615-0.137,0.298-1.031-0.29-0.91c-1.729,0.34-3.42,1.074-4.865,2.118c-0.727-1.11-1.494-2.19-2.202-3.23
		c1.797-0.854,3.629-1.703,5.332-2.706c0.116-0.071,0.166-0.187,0.173-0.301c0.126,0.205,0.252,0.41,0.371,0.622
		c0.393,0.642,0.78,1.291,1.161,1.948C356.456,136.412,355.661,138.699,352.163,140.705z M345.912,119.912
		c0.76,0.846,1.458,1.838,2.072,2.835c-0.093-0.016-0.192-0.01-0.288,0.039c-1.849,0.928-3.66,2.009-5.42,3.123
		c-0.699-1.126-1.392-2.26-2.091-3.386c1.727-1.183,3.512-1.766,5.515-2.385C345.824,120.102,345.889,120.013,345.912,119.912z
		 M348.165,123.522c0.089-0.055,0.141-0.129,0.172-0.195c0.797,1.333,1.464,2.617,1.985,3.492c0.07,0.102,0.133,0.211,0.189,0.314
		c-2.002,0.739-3.918,1.727-5.671,2.954c-0.732-1.195-1.471-2.397-2.211-3.598C344.523,125.587,346.397,124.601,348.165,123.522z
		 M350.814,128.029c0.076-0.026,0.131-0.058,0.171-0.103c0.59,0.963,1.174,1.933,1.75,2.897c-0.072-0.024-0.158-0.033-0.254,0.016
		c-1.833,0.835-3.605,1.871-5.364,2.878c-0.304-0.456-0.601-0.906-0.868-1.342c-0.354-0.58-0.709-1.161-1.07-1.734
		C347,129.608,348.853,128.737,350.814,128.029z M370.142,116.008c0.513-0.067,0.673-0.58,0.538-0.94
		c1.166,0.765,1.764,1.734,2.107,2.946c-5.468,5.109-11.797,10.512-16.169,16.631c-1.074-2.846-3.356-5.639-4.618-7.744
		c-1.402-2.309-2.952-6.217-5.235-8.691C354.58,117.781,362.376,116.908,370.142,116.008z M345.495,119.478
		c-2.031,0.152-4.062,1.226-5.657,2.485c-0.533-0.846-1.045-1.686-1.585-2.524C341.072,116.659,343.511,117.495,345.495,119.478z
		 M293.079,182.963c-5.505,2.887-10.998,6.319-15.699-0.351c-5.229-7.43-9.796-15.837-14.151-23.802
		c-2.889-5.307-4.645-10.052,1.489-14.118c3.663-2.434,8.188-4.078,12.284-5.916l0.008,0.021c-0.124,0.064-0.201,0.197-0.141,0.356
		c5.635,13.718,14.601,27.111,23.104,39.201c0.257,0.374,0.669,0.391,0.978,0.238l0.095,0.164
		C298.391,180.173,295.735,181.575,293.079,182.963z M336.194,159.222c0.215-0.197,0.329-0.523,0.108-0.786
		c-9.199-11.063-14.321-24.153-21.299-36.549c0.725-0.306,1.443-0.62,2.168-0.926c2.984-1.245,14.871-7.979,17.941-3.059
		c0.716,0.006,1.482,0.483,1.596,1.305c0.013,0.091,0.039,0.182,0.074,0.279c0.135,0.24,0.284,0.478,0.434,0.717
		c0.001,0.014,0.001,0.014,0.008,0.021c1.297,2.202,2.627,4.38,3.957,6.559c0.014,0.105,0.062,0.202,0.149,0.239
		c0.755,1.229,1.503,2.451,2.251,3.674c1.527,2.5,3.456,5.074,5.034,7.712c-0.181,0.174,0.018,0.417,0.229,0.39
		c0.579,1.006,1.115,2.014,1.539,3.044c2.765,6.639-2.154,10.191-7.091,13.206C340.957,156.48,338.576,157.858,336.194,159.222z"/>
	<g>
		<path style="fill:#002B2F;" d="M140.902,220.908c-0.934,12.336-2.565,25.13-3.227,37.799c-4.526,0.062-9.058,0.526-13.594,0.741
			c0.129-2.358,0.26-4.71,0.439-7.041c0.863-11.193,2.263-22.501,1.652-33.722c-0.238-4.375-6.632-5.573-7.846-1.063
			c-5.147,19.129-8.089,45.266-4.69,64.802c0.688,3.958,6.612,3.52,7.578,0c1.567-5.714,2.161-11.653,2.548-17.613
			c4.5,0.821,9.147,1.364,13.656,1.009c-0.086,4.632-0.01,9.236,0.342,13.775c0.124,1.606,2.375,2.03,2.87,0.389
			c5.592-18.528,5.736-39.882,6.246-59.076C146.979,217.027,141.188,217.116,140.902,220.908z"/>
		<path style="fill:#002B2F;" d="M168.19,218.22c-0.846-3.285-6.144-3.498-6.864,0c-2.444,11.873-6.344,23.422-9.45,35.133
			c-2.396,9.029-5.659,18.493-3.819,27.823c0.204,1.036,1.57,1.01,2.077,0.271c3.031-4.416,4.688-9.571,5.921-14.876
			c2.116,0.476,4.347,0.748,6.396,0.728c0.358,4.124,0.715,8.234,1.024,12.3c0.471,6.213,9.884,6.389,9.807,0
			C173.035,259.392,173.263,237.911,168.19,218.22z M156.954,262.398c0.638-3.199,1.213-6.399,1.906-9.478
			c0.626-2.784,1.261-5.573,1.925-8.356c0.269,5.767,0.713,11.542,1.198,17.288C160.351,261.873,158.641,262.067,156.954,262.398z"
			/>
		<path style="fill:#002B2F;" d="M207.616,221.98c-0.217-5.9-9.546-5.863-9.157,0c0.857,12.911,2.021,25.786,3.302,38.653
			c-5.517-13.289-9.934-27.027-14.359-40.743c-1.146-3.552-6.499-2.968-6.57,0.889c-0.36,19.56-2.998,40.374,0.292,59.738
			c0.446,2.623,4.783,2.585,5.261,0c2.309-12.49,2.138-25.627,1.708-38.639c4.932,13.114,10.332,26.03,16.006,38.894
			c1.294,2.932,6.07,1.405,5.937-1.608C209.195,260.105,208.315,241.046,207.616,221.98z"/>
		<path style="fill:#002B2F;" d="M224.705,216.451c-0.534-0.22-0.999-0.186-1.409-0.042c-1.829-0.332-3.805,0.412-4.102,2.584
			c-2.632,19.256-6.964,43.42-0.749,62.256c0.474,1.439,1.892,2.17,3.218,2.098c0.947,0.469,2.089,0.537,3.27-0.143
			C249.214,269.222,252.929,228.101,224.705,216.451z M225.534,274.281c2.425-16.311,0.592-34.317,0.923-50.734
			C240.975,236.504,242.318,262.586,225.534,274.281z"/>
		<path style="fill:#002B2F;" d="M288.223,217.255c-0.558-3.629-5.909-3.084-6.813,0c-2.289,7.809-5.547,15.175-9.252,22.367
			c-3.706-7.223-7.686-14.299-11.594-21.415c-1.521-2.771-5.985-2.17-6.756,0.882c-4.856,19.221-3.337,45.204,1.952,64.218
			c0.887,3.19,4.982,2.151,5.358-0.724c2.175-16.639-1.865-33.942-1.315-50.627c3.074,5.461,6.194,10.894,9.544,16.192
			c1.221,1.931,4.325,2.186,5.486,0c2.43-4.58,4.634-9.211,6.749-13.883c-0.497,15.544-2.691,31.011-1.35,46.61
			c0.467,5.451,9.025,5.514,8.573,0C287.064,259.645,291.471,238.394,288.223,217.255z"/>
		<path style="fill:#002B2F;" d="M311.826,218.052c-0.641-2.212-3.392-3.529-5.439-2.213c-8.504,5.464-9.767,17.258-11.45,26.453
			c-2.466,13.477-2.685,27.224,1.171,40.439c0.866,2.968,5.412,2.421,5.421-0.734c0.014-4.935-0.102-9.872-0.139-14.808
			c1.492,0.346,3.056,0.486,4.533,0.605c2.844,0.229,5.726,0.346,8.547-0.106c0.659,4.646,1.196,9.315,1.577,14.013
			c0.261,3.212,5.25,3.283,5.066,0C319.906,260.113,317.858,238.878,311.826,218.052z M305.343,260.363
			c-1.332,0.04-2.64,0.062-3.923,0.208c0.035-1.963,0.084-3.926,0.195-5.887c0.358-6.35,0.524-20.09,4.672-27.928
			c2.592,10.967,5.054,21.945,6.938,33.028C310.605,259.852,307.972,260.285,305.343,260.363z"/>
		<path style="fill:#002B2F;" d="M332.834,218.437c-1.56-3.468-7.783-2.956-7.623,1.585c0.688,19.661-2.179,44.392,4.805,62.994
			c0.385,1.027,1.843,1.128,2.192,0c0.028-0.091,0.048-0.188,0.076-0.279c0.67,0.112,1.382,0.096,2.132-0.26
			C357.608,271.499,362.639,223.162,332.834,218.437z M334.112,274.572c2.575-16.264-0.078-35.127-0.791-51.225
			c9.618,6.815,14.297,16.408,12.921,28.997C345.239,261.524,341.645,269.58,334.112,274.572z"/>
		<path style="fill:#002B2F;" d="M383.871,276.046c-5.727,0.417-11.441,2.013-17.148,3.062c1.79-6.534,2.596-13.567,2.842-20.741
			c3.712,0.798,7.858,0.559,11.307-0.288c5.297-1.3,3.047-9.287-2.244-8.141c-2.159,0.468-4.24,1.186-6.439,1.499
			c-0.862,0.123-1.712,0.227-2.562,0.343c-0.144-10.587-1.362-21.231-2.718-31.012c0.88-0.023,1.76-0.063,2.611-0.044
			c2.949,0.063,6.053,0.684,8.972,0.37c3.642-0.391,4.759-5.461,0.898-6.633c-3.106-0.943-6.682-0.612-9.869-0.238
			c-1.639,0.192-3.497,0.339-5.135,0.886c-1.601-0.197-3.566,0.959-3.707,2.854c-1.514,20.336-4.997,43.903-1.248,64.039
			c0.228,1.227,1,1.927,1.93,2.216c0.316,0.344,0.738,0.63,1.38,0.748c7.052,1.302,15.419,2.114,22.235-0.754
			C388.863,282.575,389.022,275.672,383.871,276.046z"/>
	</g>
	<path style="fill:#002B2F;" d="M346.011,44.173c-2.384-0.073-4.358,1.614-5.159,3.765c-0.48,1.289-0.483,2.567-0.236,3.814
		c-2.401-0.577-4.962-0.861-6.872-0.073c-2.862,1.18-2.564,4.363-0.94,6.487c3.818,4.992,12.719,6.254,18.309,4.079
		c0.254-0.099,0.429-0.282,0.537-0.491c0.076-0.013,0.15-0.019,0.226-0.033c1.005-0.184,1.579-1.232,1.642-2.156
		C353.851,54.641,352.873,44.383,346.011,44.173z"/>
	<path style="fill:#002B2F;" d="M401.503,158.183c-0.363-1.644-1.11-3.128-2.67-4.143c-2.271-1.478-4.811-0.903-6.476,1.13
		c-1.229,1.502-2.001,3.306-2.407,5.23c-0.227,0.373-0.41,0.788-0.532,1.242c-0.544,2.024-0.112,6.03,1.207,9.22
		c0.054,0.157,0.108,0.316,0.168,0.462c0.291,0.706,0.671,1.374,1.149,1.969c1.23,1.704,2.86,2.669,4.864,2.014
		c3.83-1.252,8.138-3.891,11.518-6.076c2.583-1.67,5.446-4.096,6.054-7.3C415.726,154.832,406.854,156.212,401.503,158.183z"/>
	<path style="fill:#002B2F;" d="M389.484,324.405c-2.031-0.781-4.221,0.104-5.26,1.972c-0.94,1.688-0.699,3.217-0.307,4.792
		c-1.406-0.12-2.827,0.05-4.245,0.607c-2.109,0.828-3.936,2.802-2.606,5.138c2.579,4.531,10.129,6.286,14.835,5.569
		c0.227-0.035,0.407-0.137,0.566-0.265c0.022,0.004,0.043,0.009,0.065,0.013c1.459,0.267,2.762-0.611,2.828-2.154
		C395.557,335.366,394.746,326.431,389.484,324.405z"/>
	<path style="fill:#002B2F;" d="M49.709,32.429c-0.038-3.53-0.887-8.867-4.861-10.09c-1.532-0.471-3.379-0.131-4.559,0.996
		c-0.517,0.494-0.932,1.206-1.097,1.902c-0.022,0.092-0.01,0.488,0.025,0.949c-1.146-0.295-2.344-0.38-3.571-0.227
		c-1.838,0.229-2.948,2.246-1.549,3.74c3.595,3.839,9.078,5.95,14.318,5.164c0.621-0.093,0.938-0.665,0.961-1.25
		C49.587,33.285,49.714,32.888,49.709,32.429z"/>
	<path style="fill:#002B2F;" d="M132.328,73.692c-2.343-1.255-4.562-0.541-6.44,0.834c-0.73-1.913-1.698-3.903-3.387-4.364
		c-2.683-0.732-4.26,1.872-4.959,4.012c-1.678,5.138,0.01,10.89,4.289,14.172c0.462,0.354,0.999,0.262,1.407-0.041
		c1.655,0.118,3.179-1.32,4.388-2.25c1.91-1.47,3.978-3.018,5.604-4.811C135.401,78.852,135.43,75.354,132.328,73.692z
		 M121.934,76.39c-0.252-0.044-0.513-0.047-0.768-0.011c0.087-0.32,0.203-0.627,0.346-0.919
		C121.662,75.759,121.803,76.068,121.934,76.39z"/>
	<path style="fill:#002B2F;" d="M209.071,162.297c-0.544-4.309-3.565-8.845-8.514-6.962c-4.524,1.721-6.012,6.77-6.076,11.436
		c-2.313-0.885-4.852-1.299-7.119-0.543c-2.884,0.962-4.159,3.994-3.12,6.823c2.42,6.59,12.296,8.923,18.931,9.132
		c1.214,0.451,2.468,0.534,3.649-0.428c1.75-1.425,1.803-4.548,2.032-6.551C209.332,171.032,209.598,166.477,209.071,162.297z
		 M195.847,172.456c0.042,0.027,0.084,0.044,0.126,0.067c-0.004,0.012-0.007,0.024-0.01,0.037c-1.187-0.63-2.363-1.293-3.537-1.946
		C193.666,171.066,195.014,171.93,195.847,172.456z"/>
	<path style="fill:#002B2F;" d="M57.207,437.756c-2.307-5.635-9.402-2.309-13.366,1.176c-2.907-3.895-8.596-8.587-11.278-2.776
		c-2.568,5.565,4.884,14.223,8.894,17.266c0.128,0.097,0.261,0.132,0.394,0.142c0.619,0.712,1.627,1.057,2.685,0.43
		C49.402,451.108,60.213,445.098,57.207,437.756z"/>
	<path style="fill:#002B2F;" d="M337.268,452.929c-1.422-0.341-2.909,0.326-3.578,1.616c-0.28,0.541-0.315,1.16-0.314,1.783
		c-0.505-0.568-1.065-1.086-1.945-1.303c-1.626-0.4-3.337,0.424-3.561,2.178c-0.254,1.991,1.547,3.204,3.036,4.117
		c2.075,1.272,4.385,2.198,6.748,2.778c0.394,0.096,0.734-0.104,0.935-0.395c0.67-0.034,1.308-0.431,1.549-1.286
		C340.944,459.547,341.012,453.827,337.268,452.929z"/>
</g>
</svg>
